<svg xmlns="http://www.w3.org/2000/svg" width="20" height="20" viewBox="0 0 20 20">
  <g id="Grupo_118" data-name="Grupo 118" transform="translate(109 854)">
    <rect id="Retângulo_762" data-name="Retângulo 762" width="20" height="20" transform="translate(-109 -854)" fill="rgba(100,39,39,0)"/>
    <path id="Icon_awesome-star" data-name="Icon awesome-star" d="M9.389.592,7.216,5l-4.862.709a1.066,1.066,0,0,0-.589,1.817l3.518,3.428L4.45,15.794a1.064,1.064,0,0,0,1.544,1.122l4.35-2.286,4.35,2.286a1.065,1.065,0,0,0,1.544-1.122l-.832-4.842,3.518-3.428a1.066,1.066,0,0,0-.589-1.817L13.472,5,11.3.592A1.066,1.066,0,0,0,9.389.592Z" transform="translate(-109.331 -852.228)" fill="#8257e5" stroke="#8257e5" stroke-width="1"/>
  </g>
</svg>
