<svg xmlns="http://www.w3.org/2000/svg" width="159.95" height="36.261" viewBox="0 0 159.95 36.261">
  <g id="Grupo_277" data-name="Grupo 277" transform="translate(726 2042)">
    <path id="Caminho_299" data-name="Caminho 299" d="M58.208,29V12.2h7.08a5,5,0,0,1,2.664.72,5.081,5.081,0,0,1,1.9,1.92,5.168,5.168,0,0,1,.72,2.712,5.516,5.516,0,0,1-.72,2.808,5.452,5.452,0,0,1-1.9,1.968,5,5,0,0,1-2.664.72H61.664V29Zm3.432-9.1h3.288a1.946,1.946,0,0,0,1.488-.648A2.342,2.342,0,0,0,67.04,17.6a2.176,2.176,0,0,0-.624-1.608,1.946,1.946,0,0,0-1.488-.648H61.64Z" transform="translate(-727.874 -2043.875)" fill="#fff"/>
    <path id="Caminho_300" data-name="Caminho 300" d="M78.959,29.24A7,7,0,0,1,75.5,28.4a6.327,6.327,0,0,1-2.376-2.352,6.662,6.662,0,0,1-.864-3.408,6.615,6.615,0,0,1,.864-3.384A6.152,6.152,0,0,1,75.5,16.928a6.841,6.841,0,0,1,3.456-.864,6.745,6.745,0,0,1,3.408.864,6.152,6.152,0,0,1,2.376,2.328,6.615,6.615,0,0,1,.864,3.384,6.662,6.662,0,0,1-.864,3.408A6.326,6.326,0,0,1,82.367,28.4,6.9,6.9,0,0,1,78.959,29.24Zm0-2.856a3.193,3.193,0,0,0,1.728-.48,3.3,3.3,0,0,0,1.176-1.344,4.483,4.483,0,0,0,0-3.84,3.138,3.138,0,0,0-1.176-1.32,3.193,3.193,0,0,0-1.728-.48,3.236,3.236,0,0,0-1.752.48,3.3,3.3,0,0,0-1.2,1.32,4.483,4.483,0,0,0,0,3.84,3.48,3.48,0,0,0,1.2,1.344A3.236,3.236,0,0,0,78.959,26.384Z" transform="translate(-727.874 -2043.875)" fill="#fff"/>
    <path id="Caminho_301" data-name="Caminho 301" d="M93.212,29.24a5.468,5.468,0,0,1-3-.84,6.082,6.082,0,0,1-2.088-2.352,7.465,7.465,0,0,1-.744-3.384,7.52,7.52,0,0,1,.744-3.408,5.9,5.9,0,0,1,2.088-2.328A5.564,5.564,0,0,1,95.4,16.52,4.82,4.82,0,0,1,97.1,17.7V11.24h3.288V29h-3.12l-.048-1.512a4.861,4.861,0,0,1-1.7,1.248A5.382,5.382,0,0,1,93.212,29.24Zm.72-2.736a2.991,2.991,0,0,0,2.376-1.056,4.167,4.167,0,0,0,.912-2.784,4.109,4.109,0,0,0-.912-2.784,3.154,3.154,0,0,0-4.752,0,4.109,4.109,0,0,0-.912,2.784,4.167,4.167,0,0,0,.912,2.784A2.991,2.991,0,0,0,93.932,26.5Z" transform="translate(-727.874 -2043.875)" fill="#fff"/>
    <path id="Caminho_302" data-name="Caminho 302" d="M109.208,29.24a6.175,6.175,0,0,1-3.24-.864,6.371,6.371,0,0,1-2.256-2.352,6.921,6.921,0,0,1-.816-3.384,6.871,6.871,0,0,1,.816-3.36,6.371,6.371,0,0,1,2.256-2.352,6.175,6.175,0,0,1,3.24-.864,7.485,7.485,0,0,1,3.1.624,5.168,5.168,0,0,1,2.208,1.752l-1.8,2.16a4.067,4.067,0,0,0-1.392-1.176,3.611,3.611,0,0,0-1.8-.5,3.281,3.281,0,0,0-1.8.5,3.48,3.48,0,0,0-1.224,1.32,4.085,4.085,0,0,0-.432,1.9,3.909,3.909,0,0,0,.456,1.9,3.6,3.6,0,0,0,1.248,1.344,3.359,3.359,0,0,0,1.776.48,3.717,3.717,0,0,0,1.728-.408,5.055,5.055,0,0,0,1.44-1.2l1.8,2.16a5.773,5.773,0,0,1-2.256,1.7A7.584,7.584,0,0,1,109.208,29.24Z" transform="translate(-727.874 -2043.875)" fill="#fff"/>
    <path id="Caminho_303" data-name="Caminho 303" d="M121.472,29.24a4.967,4.967,0,0,1-2.856-.864,6.234,6.234,0,0,1-2.04-2.352,7.465,7.465,0,0,1-.744-3.384,7.426,7.426,0,0,1,.744-3.408A5.967,5.967,0,0,1,118.64,16.9a5.425,5.425,0,0,1,2.976-.84,4.82,4.82,0,0,1,2.352.552,4.4,4.4,0,0,1,1.608,1.392v-1.68h3.264V29h-3.288V27.3a5.278,5.278,0,0,1-1.752,1.392A4.948,4.948,0,0,1,121.472,29.24Zm.888-2.856a3.021,3.021,0,0,0,2.376-1.032,3.945,3.945,0,0,0,.912-2.712,3.945,3.945,0,0,0-.912-2.712,3.224,3.224,0,0,0-4.728,0,4.012,4.012,0,0,0-.888,2.712,4.012,4.012,0,0,0,.888,2.712A3,3,0,0,0,122.36,26.384Z" transform="translate(-727.874 -2043.875)" fill="#fff"/>
    <path id="Caminho_304" data-name="Caminho 304" d="M136.531,29.24a7.977,7.977,0,0,1-3.12-.576,5.47,5.47,0,0,1-2.208-1.632l2.064-1.752a4.359,4.359,0,0,0,1.632,1.152,5.309,5.309,0,0,0,1.848.336,1.975,1.975,0,0,0,1.2-.336,1.1,1.1,0,0,0,.456-.936.984.984,0,0,0-.432-.84,8.58,8.58,0,0,0-2.064-.72,7.07,7.07,0,0,1-3.432-1.7,3.367,3.367,0,0,1-.888-2.376,3.057,3.057,0,0,1,.672-1.968,4.443,4.443,0,0,1,1.776-1.344,5.954,5.954,0,0,1,2.4-.48,7.49,7.49,0,0,1,2.808.528,6.3,6.3,0,0,1,2.208,1.44l-1.776,1.944a5.88,5.88,0,0,0-1.56-1.032,3.622,3.622,0,0,0-1.608-.432q-1.728,0-1.728,1.2a1.1,1.1,0,0,0,.528.912,8.324,8.324,0,0,0,2.184.792A6.827,6.827,0,0,1,140.707,23a3.067,3.067,0,0,1,.816,2.232,3.392,3.392,0,0,1-.672,2.064,4.424,4.424,0,0,1-1.776,1.44A6.172,6.172,0,0,1,136.531,29.24Z" transform="translate(-727.874 -2043.875)" fill="#fff"/>
    <path id="Caminho_305" data-name="Caminho 305" d="M145.249,29V19.28h-2.4V16.328h2.4v-3.24h3.264v3.24h2.664V19.28h-2.664V29Z" transform="translate(-727.874 -2043.875)" fill="#fff"/>
    <path id="Caminho_306" data-name="Caminho 306" d="M153.376,29V16.328h3.168l.048,2.088a5.119,5.119,0,0,1,1.632-1.68,3.9,3.9,0,0,1,2.16-.672,4.045,4.045,0,0,1,.792.072,3.012,3.012,0,0,1,.648.144l-.888,3.6a2.712,2.712,0,0,0-.672-.24,3.552,3.552,0,0,0-.816-.1,2.748,2.748,0,0,0-2.784,2.832V29Z" transform="translate(-727.874 -2043.875)" fill="#fff"/>
    <path id="Caminho_307" data-name="Caminho 307" d="M38.125,19.888a18.037,18.037,0,0,1-2.348,9.038q-.3.537-.643,1.05a1.562,1.562,0,1,1-2.607-1.723,15,15,0,1,0-25.055,0,1.563,1.563,0,0,1-2.609,1.721,18.126,18.126,0,0,1,14.8-28.1c.114,0,.227,0,.341,0a18.083,18.083,0,0,1,18.12,18.012Z" transform="translate(-727.874 -2043.875)" fill="#fff"/>
    <path id="Caminho_308" data-name="Caminho 308" d="M9.066,22.794,11.9,36.882a1.562,1.562,0,0,0,3.063-.616L12.128,22.179a1.562,1.562,0,1,0-3.063.616Z" transform="translate(-727.874 -2043.875)" fill="#04d361"/>
    <path id="Caminho_309" data-name="Caminho 309" d="M11.844,36.564l-.718.145a4.267,4.267,0,0,1-4.969-3.1c-.021-.081-.041-.162-.057-.245L5.071,28.256a4.27,4.27,0,0,1,3.341-5.027l.718-.145,1.259,6.256Z" transform="translate(-727.874 -2043.875)" fill="#fff"/>
    <path id="Caminho_310" data-name="Caminho 310" d="M11.844,36.564l-.718.145a4.267,4.267,0,0,1-4.969-3.1,39.53,39.53,0,0,0,4.233-4.272Z" transform="translate(-727.874 -2043.875)" fill="#fff"/>
    <path id="Caminho_311" data-name="Caminho 311" d="M36.148,27.087l-.37,1.838q-.3.537-.643,1.05a1.562,1.562,0,1,1-2.607-1.723A14.91,14.91,0,0,0,34.7,22.974a4.268,4.268,0,0,1,1.443,4.113Z" transform="translate(-727.874 -2043.875)" fill="#fff"/>
    <path id="Caminho_312" data-name="Caminho 312" d="M34.3,8.83l-2.241,2.241a14.964,14.964,0,0,0-24.6.761L5.184,9.559a18.1,18.1,0,0,1,14.481-7.68c.114,0,.227,0,.341,0A18.076,18.076,0,0,1,34.3,8.83Z" transform="translate(-727.874 -2043.875)" fill="#8257e5"/>
    <path id="Caminho_313" data-name="Caminho 313" d="M27.846,22.163,25.014,36.251a1.562,1.562,0,1,0,3.063.616l2.832-14.087a1.562,1.562,0,0,0-3.062-.616Z" transform="translate(-727.874 -2043.875)" fill="#04d361"/>
    <path id="Caminho_314" data-name="Caminho 314" d="M34.929,28.256,33.9,33.367a4.268,4.268,0,0,1-5.026,3.341l-.718-.145.744-3.693,1.969-9.787.718.145A4.275,4.275,0,0,1,34.3,25.05a4.17,4.17,0,0,1,.237.4A4.269,4.269,0,0,1,34.929,28.256Z" transform="translate(-727.874 -2043.875)" fill="#fff"/>
    <path id="Caminho_315" data-name="Caminho 315" d="M34.929,28.256,33.9,33.367a4.268,4.268,0,0,1-5.026,3.341l-.718-.145.744-3.693a43.241,43.241,0,0,0,5.636-7.418A4.269,4.269,0,0,1,34.929,28.256Z" transform="translate(-727.874 -2043.875)" fill="#fff"/>
  </g>
</svg>
