<svg xmlns="http://www.w3.org/2000/svg" width="20" height="20" viewBox="0 0 20 20">
  <g id="Grupo_116" data-name="Grupo 116" transform="translate(-6313 862)">
    <rect id="Retângulo_762" data-name="Retângulo 762" width="20" height="20" transform="translate(6313 -862)" fill="none"/>
    <g id="Grupo_115" data-name="Grupo 115" transform="translate(-14 12)">
      <path id="pause" d="M1.386,0C.621,0,0,.412,0,.921v9.825c0,.509.621.921,1.386.921s1.386-.412,1.386-.921V.921C2.773.412,2.152,0,1.386,0ZM8.781,0C8.015,0,7.394.412,7.394.921v9.825c0,.509.621.921,1.386.921s1.386-.412,1.386-.921V.921C10.167.412,9.546,0,8.781,0Z" transform="translate(6332 -870)" fill="#04d361" fill-rule="evenodd"/>
    </g>
  </g>
</svg>
