<svg xmlns="http://www.w3.org/2000/svg" width="22" height="22" viewBox="0 0 22 22">
  <g id="Grupo_277" data-name="Grupo 277" transform="translate(1654 -264)">
    <rect id="Retângulo_872" data-name="Retângulo 872" width="22" height="22" transform="translate(-1654 264)" fill="none"/>
    <path id="pause" d="M1.5,0A1.5,1.5,0,0,0,0,1.5v16a1.5,1.5,0,0,0,3,0V1.5A1.5,1.5,0,0,0,1.5,0Zm8,0A1.5,1.5,0,0,0,8,1.5v16a1.5,1.5,0,0,0,3,0V1.5A1.5,1.5,0,0,0,9.5,0Z" transform="translate(-1649 266)" fill="#fff" fill-rule="evenodd"/>
  </g>
</svg>
